<?xml version="1.0" encoding="UTF-8" standalone="no"?>
<!-- Created with Inkscape (http://www.inkscape.org/) -->

<svg
   width="1024"
   height="1024"
   viewBox="0 0 270.93333 270.93333"
   version="1.1"
   id="svg1"
   xml:space="preserve"
   inkscape:version="1.3 (0e150ed6c4, 2023-07-21)"
   sodipodi:docname="FoodPlaces.svg"
   inkscape:export-filename="FoodPlaces.png"
   inkscape:export-xdpi="96"
   inkscape:export-ydpi="96"
   xmlns:inkscape="http://www.inkscape.org/namespaces/inkscape"
   xmlns:sodipodi="http://sodipodi.sourceforge.net/DTD/sodipodi-0.dtd"
   xmlns="http://www.w3.org/2000/svg"
   xmlns:svg="http://www.w3.org/2000/svg"><sodipodi:namedview
     id="namedview1"
     pagecolor="#ffffff"
     bordercolor="#000000"
     borderopacity="0.25"
     inkscape:showpageshadow="2"
     inkscape:pageopacity="0.0"
     inkscape:pagecheckerboard="0"
     inkscape:deskcolor="#d1d1d1"
     inkscape:document-units="mm"
     inkscape:zoom="0.5"
     inkscape:cx="870"
     inkscape:cy="525"
     inkscape:window-width="2560"
     inkscape:window-height="1017"
     inkscape:window-x="-8"
     inkscape:window-y="-8"
     inkscape:window-maximized="1"
     inkscape:current-layer="layer1" /><defs
     id="defs1"><linearGradient
       id="swatch69"
       inkscape:swatch="solid"><stop
         style="stop-color:#008000;stop-opacity:1;"
         offset="0"
         id="stop69" /></linearGradient><inkscape:path-effect
       effect="fillet_chamfer"
       id="path-effect65"
       is_visible="true"
       lpeversion="1"
       nodesatellites_param="F,0,0,1,0,0,0,1 @ F,0,0,1,0,0,0,1 @ F,0,0,1,0,0,0,1 @ F,0,0,1,0,0,0,1 @ F,0,0,1,0,0,0,1 @ F,0,0,1,0,0,0,1 @ F,0,0,1,0,0,0,1 @ F,0,0,1,0,0,0,1 @ F,0,0,1,0,0,0,1 @ F,0,0,1,0,0,0,1 @ F,0,0,1,0,0.039549896,0,1 @ F,0,0,1,0,0,0,1 @ F,0,0,1,0,0,0,1 @ F,0,0,1,0,0,0,1 @ F,0,0,1,0,0,0,1 @ F,0,0,1,0,0,0,1 @ F,0,0,1,0,0,0,1 @ F,0,0,1,0,0,0,1 @ F,0,0,1,0,0,0,1 @ F,0,0,1,0,0,0,1 @ F,0,0,1,0,0,0,1 @ F,0,0,1,0,0,0,1 @ F,0,0,1,0,0,0,1 @ F,0,0,1,0,0,0,1 @ F,0,0,1,0,0,0,1 @ F,0,0,1,0,0,0,1 @ F,0,0,1,0,0,0,1 @ F,0,0,1,0,0,0,1 @ F,0,0,1,0,0,0,1 @ F,0,0,1,0,0,0,1 @ F,0,0,1,0,0,0,1 @ F,0,0,1,0,0,0,1 @ F,0,0,1,0,0,0,1 @ F,0,0,1,0,0,0,1 @ F,0,0,1,0,0,0,1 @ F,0,0,1,0,0,0,1 @ F,0,0,1,0,0,0,1 @ F,0,0,1,0,0,0,1 @ F,0,0,1,0,0,0,1 @ F,0,0,1,0,0,0,1 @ F,0,0,1,0,0,0,1 @ F,0,0,1,0,0,0,1 @ F,0,0,1,0,0,0,1 @ F,0,0,1,0,0,0,1 @ F,0,0,1,0,0,0,1 @ F,0,0,1,0,0,0,1 @ F,0,0,1,0,0,0,1 @ F,0,0,1,0,0,0,1 @ F,0,0,1,0,0,0,1 @ F,0,0,1,0,0,0,1 @ F,0,0,1,0,0,0,1 @ F,0,0,1,0,0,0,1 @ F,0,0,1,0,0,0,1 @ F,0,0,1,0,0,0,1 @ F,0,0,1,0,0,0,1 @ F,0,0,1,0,0,0,1 @ F,0,0,1,0,0,0,1 @ F,0,0,1,0,0.045911595,0,1 @ F,0,0,1,0,0,0,1 @ F,0,0,1,0,0,0,1 @ F,0,0,1,0,0,0,1 @ F,0,0,1,0,0,0,1 @ F,0,0,1,0,0,0,1 @ F,0,0,1,0,0,0,1 @ F,0,0,1,0,0,0,1 @ F,0,0,1,0,0,0,1 @ F,0,0,1,0,0,0,1 @ F,0,0,1,0,0,0,1 @ F,0,0,1,0,0,0,1 @ F,0,0,1,0,0,0,1 @ F,0,0,1,0,0,0,1 @ F,0,0,1,0,0,0,1 @ F,0,0,1,0,0,0,1 @ F,0,0,1,0,0,0,1 @ F,0,0,1,0,0,0,1 @ F,0,0,1,0,0,0,1 @ F,0,0,1,0,0,0,1 @ F,0,0,1,0,0,0,1 @ F,0,0,1,0,0,0,1 @ F,0,0,1,0,0,0,1 @ F,0,0,1,0,0,0,1 @ F,0,0,1,0,0,0,1"
       radius="0"
       unit="px"
       method="auto"
       mode="F"
       chamfer_steps="1"
       flexible="false"
       use_knot_distance="true"
       apply_no_radius="true"
       apply_with_radius="true"
       only_selected="false"
       hide_knots="false" /><inkscape:path-effect
       effect="fillet_chamfer"
       id="path-effect63"
       is_visible="true"
       lpeversion="1"
       nodesatellites_param="F,0,0,1,0,0.63010625,0,1 @ F,0,0,1,0,0,0,1 @ F,0,0,1,0,0,0,1 @ F,0,0,1,0,0,0,1 @ F,0,0,1,0,0,0,1 @ F,0,0,1,0,0,0,1 @ F,0,0,1,0,0,0,1 @ F,0,0,1,0,0,0,1 @ F,0,0,1,0,0,0,1 @ F,0,0,1,0,0,0,1 @ F,0,0,1,0,0,0,1 @ F,0,0,1,0,0,0,1 @ F,0,0,1,0,0,0,1 @ F,0,0,1,0,0,0,1 @ F,0,0,1,0,0,0,1 @ F,0,0,1,0,0,0,1 @ F,0,0,1,0,0,0,1 @ F,0,0,1,0,0,0,1 @ F,0,0,1,0,0.34064746,0,1 @ F,0,0,1,0,0,0,1 @ F,0,0,1,0,0,0,1 @ F,0,0,1,0,0.032980308,0,1 @ F,0,0,1,0,0,0,1 @ F,0,0,1,0,0,0,1 @ F,0,0,1,0,0,0,1 @ F,0,0,1,0,0,0,1 @ F,0,0,1,0,0,0,1 @ F,0,0,1,0,0,0,1 @ F,0,0,1,0,0,0,1 @ F,0,0,1,0,0,0,1 @ F,0,0,1,0,0,0,1 @ F,0,0,1,0,0,0,1 @ F,0,0,1,0,0,0,1 @ F,0,0,1,0,0,0,1 @ F,0,0,1,0,0,0,1 @ F,0,0,1,0,0,0,1 @ F,0,0,1,0,0,0,1 @ F,0,0,1,0,0,0,1 @ F,0,0,1,0,0,0,1 @ F,0,0,1,0,0,0,1 @ F,0,0,1,0,0,0,1 @ F,0,0,1,0,0,0,1 @ F,0,0,1,0,0,0,1 @ F,0,0,1,0,0,0,1 @ F,0,0,1,0,0,0,1 @ F,0,0,1,0,0,0,1 @ F,0,0,1,0,0,0,1 @ F,0,0,1,0,0,0,1 @ F,0,0,1,0,0,0,1 @ F,0,0,1,0,0,0,1 @ F,0,0,1,0,0,0,1 @ F,0,0,1,0,0,0,1 @ F,0,0,1,0,0,0,1 @ F,0,0,1,0,0,0,1 @ F,0,0,1,0,0,0,1 @ F,0,0,1,0,0,0,1 @ F,0,0,1,0,0,0,1 @ F,0,0,1,0,0,0,1 @ F,0,0,1,0,0,0,1 @ F,0,0,1,0,0,0,1 @ F,0,0,1,0,0,0,1 @ F,0,0,1,0,0,0,1 @ F,0,0,1,0,0,0,1 @ F,0,0,1,0,0,0,1 @ F,0,0,1,0,0,0,1 @ F,0,0,1,0,0,0,1 @ F,0,0,1,0,0,0,1 @ F,0,0,1,0,0,0,1 @ F,0,0,1,0,0,0,1 @ F,0,0,1,0,0.025170271,0,1 @ F,0,0,1,0,0.017751472,0,1"
       radius="0"
       unit="px"
       method="auto"
       mode="F"
       chamfer_steps="1"
       flexible="false"
       use_knot_distance="true"
       apply_no_radius="true"
       apply_with_radius="true"
       only_selected="false"
       hide_knots="false" /><inkscape:path-effect
       effect="fillet_chamfer"
       id="path-effect59"
       is_visible="true"
       lpeversion="1"
       nodesatellites_param="F,0,0,1,0,0,0,1 @ F,0,0,1,0,0,0,1 @ F,0,0,1,0,0,0,1 @ F,0,0,1,0,0,0,1 @ F,0,0,1,0,0,0,1 @ F,0,0,1,0,0,0,1 @ F,0,0,1,0,0,0,1 @ F,0,0,1,0,0,0,1 @ F,0,0,1,0,0,0,1 @ F,0,0,1,0,0,0,1 @ F,0,0,1,0,0.039549896,0,1 @ F,0,0,1,0,0,0,1 @ F,0,0,1,0,0,0,1 @ F,0,0,1,0,0,0,1 @ F,0,0,1,0,0,0,1 @ F,0,0,1,0,0,0,1 @ F,0,0,1,0,0,0,1 @ F,0,0,1,0,0,0,1 @ F,0,0,1,0,0,0,1 @ F,0,0,1,0,0,0,1 @ F,0,0,1,0,0,0,1 @ F,0,0,1,0,0,0,1 @ F,0,0,1,0,0,0,1 @ F,0,0,1,0,0,0,1 @ F,0,0,1,0,0,0,1 @ F,0,0,1,0,0,0,1 @ F,0,0,1,0,0,0,1 @ F,0,0,1,0,0,0,1 @ F,0,0,1,0,0,0,1 @ F,0,0,1,0,0,0,1 @ F,0,0,1,0,0,0,1 @ F,0,0,1,0,0,0,1 @ F,0,0,1,0,0,0,1 @ F,0,0,1,0,0,0,1 @ F,0,0,1,0,0,0,1 @ F,0,0,1,0,0,0,1 @ F,0,0,1,0,0,0,1 @ F,0,0,1,0,0,0,1 @ F,0,0,1,0,0,0,1 @ F,0,0,1,0,0,0,1 @ F,0,0,1,0,0,0,1 @ F,0,0,1,0,0,0,1 @ F,0,0,1,0,0,0,1 @ F,0,0,1,0,0,0,1 @ F,0,0,1,0,0,0,1 @ F,0,0,1,0,0,0,1 @ F,0,0,1,0,0,0,1 @ F,0,0,1,0,0,0,1 @ F,0,0,1,0,0,0,1 @ F,0,0,1,0,0,0,1 @ F,0,0,1,0,0,0,1 @ F,0,0,1,0,0,0,1 @ F,0,0,1,0,0,0,1 @ F,0,0,1,0,0,0,1 @ F,0,0,1,0,0,0,1 @ F,0,0,1,0,0,0,1 @ F,0,0,1,0,0,0,1 @ F,0,0,1,0,0.045911595,0,1 @ F,0,0,1,0,0,0,1 @ F,0,0,1,0,0,0,1 @ F,0,0,1,0,0,0,1 @ F,0,0,1,0,0,0,1 @ F,0,0,1,0,0,0,1 @ F,0,0,1,0,0,0,1 @ F,0,0,1,0,0,0,1 @ F,0,0,1,0,0,0,1 @ F,0,0,1,0,0,0,1 @ F,0,0,1,0,0,0,1 @ F,0,0,1,0,0,0,1 @ F,0,0,1,0,0,0,1 @ F,0,0,1,0,0,0,1 @ F,0,0,1,0,0,0,1 @ F,0,0,1,0,0,0,1 @ F,0,0,1,0,0,0,1 @ F,0,0,1,0,0,0,1 @ F,0,0,1,0,0,0,1 @ F,0,0,1,0,0,0,1 @ F,0,0,1,0,0,0,1 @ F,0,0,1,0,0,0,1 @ F,0,0,1,0,0,0,1 @ F,0,0,1,0,0,0,1 @ F,0,0,1,0,0,0,1"
       radius="0"
       unit="px"
       method="auto"
       mode="F"
       chamfer_steps="1"
       flexible="false"
       use_knot_distance="true"
       apply_no_radius="true"
       apply_with_radius="true"
       only_selected="false"
       hide_knots="false" /><inkscape:path-effect
       effect="fillet_chamfer"
       id="path-effect58"
       is_visible="true"
       lpeversion="1"
       nodesatellites_param="F,0,0,1,0,0.63010625,0,1 @ F,0,0,1,0,0,0,1 @ F,0,0,1,0,0,0,1 @ F,0,0,1,0,0,0,1 @ F,0,0,1,0,0,0,1 @ F,0,0,1,0,0,0,1 @ F,0,0,1,0,0,0,1 @ F,0,0,1,0,0,0,1 @ F,0,0,1,0,0,0,1 @ F,0,0,1,0,0,0,1 @ F,0,0,1,0,0,0,1 @ F,0,0,1,0,0,0,1 @ F,0,0,1,0,0,0,1 @ F,0,0,1,0,0,0,1 @ F,0,0,1,0,0,0,1 @ F,0,0,1,0,0,0,1 @ F,0,0,1,0,0,0,1 @ F,0,0,1,0,0,0,1 @ F,0,0,1,0,0.34064746,0,1 @ F,0,0,1,0,0,0,1 @ F,0,0,1,0,0,0,1 @ F,0,0,1,0,0.032980308,0,1 @ F,0,0,1,0,0,0,1 @ F,0,0,1,0,0,0,1 @ F,0,0,1,0,0,0,1 @ F,0,0,1,0,0,0,1 @ F,0,0,1,0,0,0,1 @ F,0,0,1,0,0,0,1 @ F,0,0,1,0,0,0,1 @ F,0,0,1,0,0,0,1 @ F,0,0,1,0,0,0,1 @ F,0,0,1,0,0,0,1 @ F,0,0,1,0,0,0,1 @ F,0,0,1,0,0,0,1 @ F,0,0,1,0,0,0,1 @ F,0,0,1,0,0,0,1 @ F,0,0,1,0,0,0,1 @ F,0,0,1,0,0,0,1 @ F,0,0,1,0,0,0,1 @ F,0,0,1,0,0,0,1 @ F,0,0,1,0,0,0,1 @ F,0,0,1,0,0,0,1 @ F,0,0,1,0,0,0,1 @ F,0,0,1,0,0,0,1 @ F,0,0,1,0,0,0,1 @ F,0,0,1,0,0,0,1 @ F,0,0,1,0,0,0,1 @ F,0,0,1,0,0,0,1 @ F,0,0,1,0,0,0,1 @ F,0,0,1,0,0,0,1 @ F,0,0,1,0,0,0,1 @ F,0,0,1,0,0,0,1 @ F,0,0,1,0,0,0,1 @ F,0,0,1,0,0,0,1 @ F,0,0,1,0,0,0,1 @ F,0,0,1,0,0,0,1 @ F,0,0,1,0,0,0,1 @ F,0,0,1,0,0,0,1 @ F,0,0,1,0,0,0,1 @ F,0,0,1,0,0,0,1 @ F,0,0,1,0,0,0,1 @ F,0,0,1,0,0,0,1 @ F,0,0,1,0,0,0,1 @ F,0,0,1,0,0,0,1 @ F,0,0,1,0,0,0,1 @ F,0,0,1,0,0,0,1 @ F,0,0,1,0,0,0,1 @ F,0,0,1,0,0,0,1 @ F,0,0,1,0,0,0,1 @ F,0,0,1,0,0.025170271,0,1 @ F,0,0,1,0,0.017751472,0,1"
       radius="0"
       unit="px"
       method="auto"
       mode="F"
       chamfer_steps="1"
       flexible="false"
       use_knot_distance="true"
       apply_no_radius="true"
       apply_with_radius="true"
       only_selected="false"
       hide_knots="false" /><inkscape:path-effect
       effect="fillet_chamfer"
       id="path-effect12"
       is_visible="true"
       lpeversion="1"
       nodesatellites_param="F,0,0,1,0,0,0,1 @ F,0,0,1,0,0,0,1 @ F,0,0,1,0,0,0,1"
       radius="0"
       unit="px"
       method="auto"
       mode="F"
       chamfer_steps="1"
       flexible="false"
       use_knot_distance="true"
       apply_no_radius="true"
       apply_with_radius="true"
       only_selected="false"
       hide_knots="false" /><inkscape:path-effect
       effect="fillet_chamfer"
       id="path-effect11"
       is_visible="true"
       lpeversion="1"
       nodesatellites_param="F,0,0,1,0,0,0,1 @ F,0,0,1,0,0,0,1 @ F,0,0,1,0,0,0,1"
       radius="0"
       unit="px"
       method="auto"
       mode="F"
       chamfer_steps="1"
       flexible="false"
       use_knot_distance="true"
       apply_no_radius="true"
       apply_with_radius="true"
       only_selected="false"
       hide_knots="false" /><inkscape:path-effect
       effect="fillet_chamfer"
       id="path-effect10"
       is_visible="true"
       lpeversion="1"
       nodesatellites_param="F,0,0,1,0,0,0,1 @ F,0,0,1,0,0,0,1 @ F,0,0,1,0,0,0,1"
       radius="0"
       unit="px"
       method="auto"
       mode="F"
       chamfer_steps="1"
       flexible="false"
       use_knot_distance="true"
       apply_no_radius="true"
       apply_with_radius="true"
       only_selected="false"
       hide_knots="false" /><inkscape:perspective
       sodipodi:type="inkscape:persp3d"
       inkscape:vp_x="0 : 122.43333 : 1"
       inkscape:vp_y="0 : 999.99997 : 0"
       inkscape:vp_z="210 : 122.43333 : 1"
       inkscape:persp3d-origin="105 : 72.933332 : 1"
       id="perspective3" /><inkscape:path-effect
       effect="skeletal"
       id="path-effect1"
       is_visible="true"
       lpeversion="1"
       pattern="M 0,4.9921382 C 0,2.2364779 2.2364779,0 4.9921382,0 c 2.7556604,0 4.9921383,2.2364779 4.9921383,4.9921382 0,2.7556604 -2.2364779,4.9921383 -4.9921383,4.9921383 C 2.2364779,9.9842765 0,7.7477986 0,4.9921382 Z"
       copytype="single_stretched"
       prop_scale="1"
       scale_y_rel="false"
       spacing="0"
       normal_offset="0"
       tang_offset="0"
       prop_units="false"
       vertical_pattern="false"
       hide_knot="false"
       fuse_tolerance="0" /></defs><g
     inkscape:label="Camada 1"
     inkscape:groupmode="layer"
     id="layer1"><path
       style="color:#000000;display:none;fill:#aa0000;-inkscape-stroke:none;paint-order:stroke markers fill"
       d="m 22.676652,28.38773 c -0.655419,0 -1.182873,0.52797 -1.182873,1.18339 0,0.65542 0.527454,1.18288 1.182873,1.18288 h 34.02118 c 0.65542,0 1.18339,-0.52746 1.18339,-1.18288 0,-0.65542 -0.52797,-1.18339 -1.18339,-1.18339 z"
       id="path39"
       sodipodi:nodetypes="sssssss" /><path
       id="path41"
       style="color:#000000;display:none;fill:none;stroke:#ffff00;stroke-width:0.055;stroke-dasharray:none;paint-order:stroke markers fill"
       d="m 39.703512,15.72546 c -8.345909,0.007 -15.226011,6.53352 -15.819182,14.84767 -0.04161,0.58322 0.126053,0.99374 0.49351,0.99374 h 30.609502 c 0.41371,0 0.59823,-0.22807 0.55293,-0.88625 -0.57585,-8.36665 -7.45107,-14.95288 -15.83676,-14.95516 z m -4.393006,4.814693 h 1.4795 c 0.2881,0 0.51986,0.23228 0.51986,0.52038 v 4.30516 c 0,0.28809 -0.23176,0.51987 -0.51986,0.51987 h -1.4795 c -0.28809,0 -0.51986,-0.23178 -0.51986,-0.51987 v -4.30516 c 0,-0.2881 0.23177,-0.52038 0.51986,-0.52038 z m 7.393346,0 h 1.47949 c 0.28809,0 0.51987,0.23228 0.51987,0.52038 v 4.30516 c 0,0.28809 -0.23178,0.51987 -0.51987,0.51987 h -1.47949 c -0.28809,0 -0.51987,-0.23178 -0.51987,-0.51987 v -4.30516 c 0,-0.2881 0.23178,-0.52038 0.51987,-0.52038 z"
       sodipodi:nodetypes="csssscssssssssssssssssss" /><g
       id="g72"
       transform="matrix(3.4159699,0,0,3.4159699,-0.07400604,-0.07400604)"><circle
         style="fill:#ffe677;fill-opacity:1;fill-rule:nonzero;stroke:none;stroke-width:0.0612624;stroke-linecap:round;stroke-linejoin:round;stroke-dasharray:none;paint-order:stroke markers fill"
         id="path71"
         cx="39.6875"
         cy="39.6875"
         r="39.656868" /><g
         id="g71"
         transform="matrix(1.4847447,0,0,1.4847447,-19.238306,-19.238305)"><path
           d="m 39.831152,11.37223 5.2e-4,5.2e-4 c -0.089,-6e-5 -0.1778,0.008 -0.2651,0.0238 -0.0872,0.0159 -0.17258,0.0396 -0.25476,0.0708 -0.0821,0.0313 -0.16072,0.0699 -0.23461,0.11524 -0.0739,0.0452 -0.1428,0.097 -0.20568,0.15451 -0.0629,0.0577 -0.11953,0.12082 -0.16898,0.18862 -0.0495,0.0679 -0.0915,0.14006 -0.12557,0.21549 -0.034,0.0754 -0.0597,0.15359 -0.077,0.23358 -0.0174,0.08 -0.0263,0.16132 -0.0264,0.24288 6.1e-5,8.51e-4 1.25e-4,0.0017 1.93e-4,0.0026 0.0017,0.02177 -0.01163,0.03266 -0.03212,0.02508 -0.02882,-0.01065 -0.05772,-0.02041 -0.08658,-0.02923 -0.0812,-0.0213 -0.16191,-0.0351 -0.24082,-0.0413 -0.0788,-0.006 -0.15545,-0.005 -0.22892,0.004 -0.0735,0.009 -0.14345,0.0256 -0.20878,0.0496 -0.0653,0.0238 -0.125696,0.0548 -0.180346,0.0925 -0.0547,0.0379 -0.10332,0.0824 -0.14521,0.13281 -0.0421,0.0503 -0.0772,0.10643 -0.1049,0.16743 -0.0275,0.061 -0.0474,0.12659 -0.0594,0.19585 -0.0121,0.0692 -0.0162,0.14173 -0.0124,0.21653 0.004,0.0749 0.0156,0.15178 0.0351,0.22944 0.0196,0.0776 0.0465,0.1557 0.0811,0.23306 0.0346,0.0772 0.0763,0.15338 0.12454,0.22738 0.0482,0.0742 0.10273,0.14583 0.16278,0.21394 0.06,0.0681 0.125266,0.13231 0.194816,0.19172 0.0696,0.0593 0.14319,0.11344 0.21963,0.16174 0.0764,0.0483 0.15534,0.0906 0.23564,0.12609 0.0138,0.005 0.0276,0.01 0.0413,0.0145 v 0.96222 c 0.21762,-0.0199 0.43577,-0.0376 0.65578,-0.0486 0.2578,-0.0128 0.51743,-0.0194 0.77824,-0.0196 0.26206,7e-5 0.5224,0.006 0.78135,0.0191 0.25896,0.0128 0.51648,0.0322 0.77205,0.0574 0.008,7.8e-4 0.0158,0.002 0.0238,0.003 v -1.00563 c 0.0142,-0.007 0.0283,-0.0131 0.0424,-0.0202 0.0264,-0.0132 0.0531,-0.0273 0.0791,-0.0419 0.0261,-0.0148 0.052,-0.0303 0.0775,-0.0465 0.0255,-0.0161 0.0501,-0.0328 0.0749,-0.0501 0.0248,-0.0175 0.0493,-0.0356 0.0734,-0.0543 0.024,-0.0186 0.0476,-0.0377 0.0708,-0.0574 0.0232,-0.0198 0.046,-0.0401 0.0682,-0.061 0.0221,-0.0209 0.0436,-0.0422 0.0646,-0.0641 0.0212,-0.0218 0.0419,-0.044 0.062,-0.0667 0.0201,-0.0227 0.0395,-0.0459 0.0584,-0.0693 0.0187,-0.0234 0.0373,-0.0472 0.0548,-0.0713 0.0174,-0.0242 0.0336,-0.0486 0.0496,-0.0734 0.0482,-0.074 0.0899,-0.15015 0.12454,-0.22738 0.0347,-0.0774 0.062,-0.15543 0.0816,-0.23306 0.0196,-0.0777 0.0314,-0.15451 0.0351,-0.22944 0.004,-0.0748 -3.4e-4,-0.14733 -0.0124,-0.21653 -0.0122,-0.0693 -0.0322,-0.13487 -0.06,-0.19585 -0.0275,-0.061 -0.0625,-0.11706 -0.10438,-0.16743 -0.0419,-0.0504 -0.0905,-0.0949 -0.14521,-0.13281 -0.0547,-0.0377 -0.11506,-0.0687 -0.18035,-0.0925 -0.0653,-0.024 -0.13526,-0.0406 -0.20878,-0.0496 -0.0735,-0.009 -0.15015,-0.0101 -0.22892,-0.004 -0.04083,0.0044 -0.08209,0.01078 -0.123613,0.01912 -0.02486,0.005 -0.04482,-0.0108 -0.04627,-0.03611 -4.17e-4,-0.0073 -9.38e-4,-0.01455 -0.0016,-0.02182 -0.002,-0.0271 -0.005,-0.0542 -0.009,-0.0811 -0.004,-0.0268 -0.009,-0.0536 -0.0145,-0.0801 -0.006,-0.0267 -0.0125,-0.0533 -0.0202,-0.0796 -0.008,-0.0263 -0.0163,-0.0523 -0.0258,-0.078 -0.009,-0.0256 -0.0198,-0.051 -0.031,-0.076 -0.0113,-0.0252 -0.0236,-0.05 -0.0367,-0.0744 -0.0131,-0.0243 -0.0271,-0.0483 -0.0419,-0.0718 -0.0148,-0.0235 -0.0305,-0.0466 -0.047,-0.0692 -0.0164,-0.0226 -0.0337,-0.0446 -0.0517,-0.0661 -0.018,-0.0216 -0.0368,-0.0426 -0.0563,-0.063 -0.0196,-0.0204 -0.04,-0.0402 -0.061,-0.0594 -0.0209,-0.0192 -0.0424,-0.0379 -0.0646,-0.0558 -0.0223,-0.0179 -0.0452,-0.0351 -0.0687,-0.0517 -0.0236,-0.0164 -0.0477,-0.0321 -0.0724,-0.047 -0.0246,-0.0152 -0.0497,-0.0297 -0.0754,-0.0434 -0.0257,-0.0135 -0.052,-0.0263 -0.0786,-0.0382 -0.0265,-0.012 -0.0534,-0.0232 -0.0806,-0.0336 -0.0274,-0.0105 -0.0551,-0.0201 -0.0832,-0.0289 -0.0281,-0.009 -0.0566,-0.0164 -0.0853,-0.0233 -0.0285,-0.007 -0.0573,-0.0133 -0.0863,-0.0186 -0.0291,-0.005 -0.0583,-0.01 -0.0879,-0.0134 -0.0294,-0.003 -0.0588,-0.006 -0.0884,-0.008 -0.0296,-0.002 -0.0592,-0.003 -0.0889,-0.003 z"
           style="fill:#008000;stroke:#ffffff;stroke-width:1.01027;stroke-linecap:round;stroke-linejoin:round;stroke-dasharray:none;paint-order:stroke fill markers"
           id="path33"
           inkscape:path-effect="#path-effect59"
           inkscape:original-d="m 39.831152,11.37223 5.2e-4,5.2e-4 c -0.089,-6e-5 -0.1778,0.008 -0.2651,0.0238 -0.0872,0.0159 -0.17258,0.0396 -0.25476,0.0708 -0.0821,0.0313 -0.16072,0.0699 -0.23461,0.11524 -0.0739,0.0452 -0.1428,0.097 -0.20568,0.15451 -0.0629,0.0577 -0.11953,0.12082 -0.16898,0.18862 -0.0495,0.0679 -0.0915,0.14006 -0.12557,0.21549 -0.034,0.0754 -0.0597,0.15359 -0.077,0.23358 -0.0174,0.08 -0.0263,0.16132 -0.0264,0.24288 0.001,0.014 0.003,0.028 0.005,0.0418 -0.041,-0.0163 -0.0823,-0.0308 -0.1235,-0.0434 -0.0812,-0.0213 -0.16191,-0.0351 -0.24082,-0.0413 -0.0788,-0.006 -0.15545,-0.005 -0.22892,0.004 -0.0735,0.009 -0.14345,0.0256 -0.20878,0.0496 -0.0653,0.0238 -0.125696,0.0548 -0.180346,0.0925 -0.0547,0.0379 -0.10332,0.0824 -0.14521,0.13281 -0.0421,0.0503 -0.0772,0.10643 -0.1049,0.16743 -0.0275,0.061 -0.0474,0.12659 -0.0594,0.19585 -0.0121,0.0692 -0.0162,0.14173 -0.0124,0.21653 0.004,0.0749 0.0156,0.15178 0.0351,0.22944 0.0196,0.0776 0.0465,0.1557 0.0811,0.23306 0.0346,0.0772 0.0763,0.15338 0.12454,0.22738 0.0482,0.0742 0.10273,0.14583 0.16278,0.21394 0.06,0.0681 0.125266,0.13231 0.194816,0.19172 0.0696,0.0593 0.14319,0.11344 0.21963,0.16174 0.0764,0.0483 0.15534,0.0906 0.23564,0.12609 0.0138,0.005 0.0276,0.01 0.0413,0.0145 v 0.96222 c 0.21762,-0.0199 0.43577,-0.0376 0.65578,-0.0486 0.2578,-0.0128 0.51743,-0.0194 0.77824,-0.0196 0.26206,7e-5 0.5224,0.006 0.78135,0.0191 0.25896,0.0128 0.51648,0.0322 0.77205,0.0574 0.008,7.8e-4 0.0158,0.002 0.0238,0.003 v -1.00563 c 0.0142,-0.007 0.0283,-0.0131 0.0424,-0.0202 0.0264,-0.0132 0.0531,-0.0273 0.0791,-0.0419 0.0261,-0.0148 0.052,-0.0303 0.0775,-0.0465 0.0255,-0.0161 0.0501,-0.0328 0.0749,-0.0501 0.0248,-0.0175 0.0493,-0.0356 0.0734,-0.0543 0.024,-0.0186 0.0476,-0.0377 0.0708,-0.0574 0.0232,-0.0198 0.046,-0.0401 0.0682,-0.061 0.0221,-0.0209 0.0436,-0.0422 0.0646,-0.0641 0.0212,-0.0218 0.0419,-0.044 0.062,-0.0667 0.0201,-0.0227 0.0395,-0.0459 0.0584,-0.0693 0.0187,-0.0234 0.0373,-0.0472 0.0548,-0.0713 0.0174,-0.0242 0.0336,-0.0486 0.0496,-0.0734 0.0482,-0.074 0.0899,-0.15015 0.12454,-0.22738 0.0347,-0.0774 0.062,-0.15543 0.0816,-0.23306 0.0196,-0.0777 0.0314,-0.15451 0.0351,-0.22944 0.004,-0.0748 -3.4e-4,-0.14733 -0.0124,-0.21653 -0.0122,-0.0693 -0.0322,-0.13487 -0.06,-0.19585 -0.0275,-0.061 -0.0625,-0.11706 -0.10438,-0.16743 -0.0419,-0.0504 -0.0905,-0.0949 -0.14521,-0.13281 -0.0547,-0.0377 -0.11506,-0.0687 -0.18035,-0.0925 -0.0653,-0.024 -0.13526,-0.0406 -0.20878,-0.0496 -0.0735,-0.009 -0.15015,-0.0101 -0.22892,-0.004 -0.0555,0.006 -0.11181,0.0156 -0.16847,0.0289 -1.9e-4,-0.0226 -10e-4,-0.0452 -0.003,-0.0677 -0.002,-0.0271 -0.005,-0.0542 -0.009,-0.0811 -0.004,-0.0268 -0.009,-0.0536 -0.0145,-0.0801 -0.006,-0.0267 -0.0125,-0.0533 -0.0202,-0.0796 -0.008,-0.0263 -0.0163,-0.0523 -0.0258,-0.078 -0.009,-0.0256 -0.0198,-0.051 -0.031,-0.076 -0.0113,-0.0252 -0.0236,-0.05 -0.0367,-0.0744 -0.0131,-0.0243 -0.0271,-0.0483 -0.0419,-0.0718 -0.0148,-0.0235 -0.0305,-0.0466 -0.047,-0.0692 -0.0164,-0.0226 -0.0337,-0.0446 -0.0517,-0.0661 -0.018,-0.0216 -0.0368,-0.0426 -0.0563,-0.063 -0.0196,-0.0204 -0.04,-0.0402 -0.061,-0.0594 -0.0209,-0.0192 -0.0424,-0.0379 -0.0646,-0.0558 -0.0223,-0.0179 -0.0452,-0.0351 -0.0687,-0.0517 -0.0236,-0.0164 -0.0477,-0.0321 -0.0724,-0.047 -0.0246,-0.0152 -0.0497,-0.0297 -0.0754,-0.0434 -0.0257,-0.0135 -0.052,-0.0263 -0.0786,-0.0382 -0.0265,-0.012 -0.0534,-0.0232 -0.0806,-0.0336 -0.0274,-0.0105 -0.0551,-0.0201 -0.0832,-0.0289 -0.0281,-0.009 -0.0566,-0.0164 -0.0853,-0.0233 -0.0285,-0.007 -0.0573,-0.0133 -0.0863,-0.0186 -0.0291,-0.005 -0.0583,-0.01 -0.0879,-0.0134 -0.0294,-0.003 -0.0588,-0.006 -0.0884,-0.008 -0.0296,-0.002 -0.0592,-0.003 -0.0889,-0.003 z"
           transform="translate(-2.45e-5,3.116022)" /><path
           d="m 53.273234,33.950899 c -0.139157,0.789516 -0.346997,1.56537 -0.621151,2.318722 -0.274188,0.753162 -0.613613,1.480946 -1.014408,2.175061 -0.400777,0.694252 -0.861413,1.35218 -1.37666,1.966288 -0.515379,0.614021 -1.083393,1.181862 -1.697571,1.697054 -0.613923,0.515401 -1.271678,0.97621 -1.965771,1.377177 -0.694299,0.400645 -1.422256,0.739898 -2.175578,1.013892 -0.753168,0.274301 -1.528849,0.482313 -2.318205,0.621667 -0.789597,0.139084 -1.589832,0.20894 -2.391585,0.208773 -0.80158,1.37e-4 -1.601642,-0.06972 -2.391069,-0.208773 -0.789356,-0.139354 -1.565037,-0.347366 -2.318205,-0.621667 -0.753322,-0.273994 -1.481279,-0.613247 -2.175577,-1.013892 -0.694093,-0.400967 -1.351849,-0.861776 -1.965772,-1.377177 -0.614178,-0.515192 -1.182192,-1.083033 -1.697571,-1.697054 -0.515247,-0.614108 -0.975883,-1.272036 -1.37666,-1.966288 -0.400795,-0.694115 -0.74022,-1.421899 -1.014408,-2.175061 -0.274154,-0.753352 -0.481994,-1.529206 -0.621151,-2.318722 -0.0015,-0.01502 -0.003,-0.03005 -0.0045,-0.04508 -0.01838,-0.187229 -0.181602,-0.339394 -0.369736,-0.339394 h -1.400848 c -0.121074,0 -0.244188,-0.0095 -0.36587,-0.02791 -0.012,-0.0018 -0.0236,-0.0049 -0.0352,-0.0079 -0.01755,-0.0046 -0.03117,0.0072 -0.03021,0.02537 0.01047,0.19735 0.01874,0.397282 0.03234,0.591319 0.02902,0.414082 0.06375,0.821609 0.104903,1.223181 0.04115,0.401571 0.08856,0.796865 0.141593,1.186491 0.05303,0.389624 0.112077,0.773624 0.176734,1.151867 0.06466,0.378245 0.134815,0.750852 0.210839,1.118278 0.07602,0.367428 0.157809,0.729579 0.244947,1.086756 0.08714,0.357175 0.179507,0.709292 0.277502,1.056783 0.098,0.347489 0.201461,0.690508 0.310059,1.028878 0.108598,0.338368 0.222635,0.672192 0.341581,1.002006 0.118945,0.329812 0.243033,0.655379 0.37207,0.977201 0.129038,0.321822 0.263169,0.640068 0.402043,0.954464 0.138874,0.314395 0.282526,0.625225 0.430981,0.932759 0.148456,0.307535 0.301622,0.611884 0.459404,0.913123 0.157782,0.301239 0.319939,0.599011 0.486792,0.894519 0.166853,0.295508 0.337995,0.588674 0.513664,0.879016 0.175668,0.290342 0.35573,0.578257 0.540018,0.86403 0.184289,0.285773 0.372807,0.569405 0.56534,0.851111 0.385069,0.56341 0.78627,1.119008 1.203028,1.669665 0.416757,0.550659 0.849123,1.096234 1.295528,1.63866 0.446405,0.542425 0.9073,1.081859 1.381311,1.620573 0.474011,0.538713 0.961319,1.0764 1.460893,1.615922 0.499572,0.539521 1.011179,1.080891 1.534273,1.62574 1.046188,1.0897 2.137414,2.194479 3.265434,3.332614 0.626638,-0.600026 1.234954,-1.184081 1.824695,-1.755449 0.58974,-0.571368 1.160909,-1.130051 1.71359,-1.679484 0.552682,-0.549432 1.086838,-1.089532 1.602486,-1.623673 0.51565,-0.534142 1.012802,-1.062496 1.491382,-1.588017 0.478581,-0.525522 0.938284,-1.048426 1.379761,-1.571997 0.441476,-0.523573 0.86432,-1.047839 1.268656,-1.576131 0.202169,-0.264147 0.399778,-0.52921 0.592729,-0.795817 0.19295,-0.266608 0.381243,-0.53476 0.564823,-0.804603 0.183581,-0.269842 0.362704,-0.541547 0.536918,-0.815454 0.174215,-0.273906 0.343522,-0.550016 0.508497,-0.82889 0.164973,-0.278873 0.325442,-0.56027 0.481107,-0.844909 0.155665,-0.284641 0.306853,-0.572274 0.453202,-0.863513 0.146351,-0.291241 0.287749,-0.586026 0.424781,-0.884701 0.137032,-0.298675 0.269684,-0.601529 0.397391,-0.908472 0.127709,-0.306941 0.250589,-0.618265 0.36897,-0.93431 0.118381,-0.316043 0.232016,-0.636753 0.341065,-0.962731 0.109049,-0.32598 0.213447,-0.65699 0.313159,-0.993738 0.09971,-0.336749 0.194883,-0.678976 0.285254,-1.027328 0.09037,-0.348351 0.175806,-0.702711 0.256832,-1.063501 0.08103,-0.360788 0.157767,-0.728198 0.229443,-1.102258 0.07167,-0.37406 0.1387,-0.754918 0.201021,-1.143083 0.06232,-0.388163 0.119638,-0.783905 0.1726,-1.187007 0.05296,-0.403104 0.101095,-0.813609 0.144694,-1.232483 0.0436,-0.418876 0.08256,-0.846094 0.116788,-1.281576 0.01875,-0.238575 0.02554,-0.499854 0.04078,-0.744937 8.6e-4,-0.01383 -0.0096,-0.02339 -0.02332,-0.02145 -0.131398,0.01852 -0.258853,0.02991 -0.377989,0.03095 -0.0098,8.6e-5 -0.02569,7.8e-5 -0.03549,7.8e-5 l -1.033691,3e-6 c -0.347998,10e-7 -0.642171,0.172415 -0.663696,0.384474 z"
           style="fill:#aa0000;stroke:#ffffff;stroke-width:1.01027;stroke-linecap:round;stroke-linejoin:round;stroke-dasharray:none;paint-order:stroke fill markers"
           id="path58"
           inkscape:path-effect="#path-effect58"
           inkscape:original-d="m 53.306824,33.566427 a 13.769756,13.769756 0 0 1 -0.03359,0.384472 13.769756,13.769756 0 0 1 -0.621151,2.318722 13.769756,13.769756 0 0 1 -1.014408,2.175061 13.769756,13.769756 0 0 1 -1.37666,1.966288 13.769756,13.769756 0 0 1 -1.697571,1.697054 13.769756,13.769756 0 0 1 -1.965771,1.377177 13.769756,13.769756 0 0 1 -2.175578,1.013892 13.769756,13.769756 0 0 1 -2.318205,0.621667 13.769756,13.769756 0 0 1 -2.391585,0.208773 13.769756,13.769756 0 0 1 -2.391069,-0.208773 13.769756,13.769756 0 0 1 -2.318205,-0.621667 13.769756,13.769756 0 0 1 -2.175577,-1.013892 13.769756,13.769756 0 0 1 -1.965772,-1.377177 13.769756,13.769756 0 0 1 -1.697571,-1.697054 13.769756,13.769756 0 0 1 -1.37666,-1.966288 13.769756,13.769756 0 0 1 -1.014408,-2.175061 13.769756,13.769756 0 0 1 -0.621151,-2.318722 13.769756,13.769756 0 0 1 -0.03359,-0.384472 h -1.741495 c -0.121074,0 -0.244188,-0.0095 -0.36587,-0.02791 -0.02293,-0.0035 -0.04438,-0.0114 -0.06718,-0.0155 0.01134,0.208005 0.01975,0.419413 0.03411,0.624252 0.02902,0.414082 0.06375,0.821609 0.104903,1.223181 0.04115,0.401571 0.08856,0.796865 0.141593,1.186491 0.05303,0.389624 0.112077,0.773624 0.176734,1.151867 0.06466,0.378245 0.134815,0.750852 0.210839,1.118278 0.07602,0.367428 0.157809,0.729579 0.244947,1.086756 0.08714,0.357175 0.179507,0.709292 0.277502,1.056783 0.098,0.347489 0.201461,0.690508 0.310059,1.028878 0.108598,0.338368 0.222635,0.672192 0.341581,1.002006 0.118945,0.329812 0.243033,0.655379 0.37207,0.977201 0.129038,0.321822 0.263169,0.640068 0.402043,0.954464 0.138874,0.314395 0.282526,0.625225 0.430981,0.932759 0.148456,0.307535 0.301622,0.611884 0.459404,0.913123 0.157782,0.301239 0.319939,0.599011 0.486792,0.894519 0.166853,0.295508 0.337995,0.588674 0.513664,0.879016 0.175668,0.290342 0.35573,0.578257 0.540018,0.86403 0.184289,0.285773 0.372807,0.569405 0.56534,0.851111 0.385069,0.56341 0.78627,1.119008 1.203028,1.669665 0.416757,0.550659 0.849123,1.096234 1.295528,1.63866 0.446405,0.542425 0.9073,1.081859 1.381311,1.620573 0.474011,0.538713 0.961319,1.0764 1.460893,1.615922 0.499572,0.539521 1.011179,1.080891 1.534273,1.62574 1.046188,1.0897 2.137414,2.194479 3.265434,3.332614 0.626638,-0.600026 1.234954,-1.184081 1.824695,-1.755449 0.58974,-0.571368 1.160909,-1.130051 1.71359,-1.679484 0.552682,-0.549432 1.086838,-1.089532 1.602486,-1.623673 0.51565,-0.534142 1.012802,-1.062496 1.491382,-1.588017 0.478581,-0.525522 0.938284,-1.048426 1.379761,-1.571997 0.441476,-0.523573 0.86432,-1.047839 1.268656,-1.576131 0.202169,-0.264147 0.399778,-0.52921 0.592729,-0.795817 0.19295,-0.266608 0.381243,-0.53476 0.564823,-0.804603 0.183581,-0.269842 0.362704,-0.541547 0.536918,-0.815454 0.174215,-0.273906 0.343522,-0.550016 0.508497,-0.82889 0.164973,-0.278873 0.325442,-0.56027 0.481107,-0.844909 0.155665,-0.284641 0.306853,-0.572274 0.453202,-0.863513 0.146351,-0.291241 0.287749,-0.586026 0.424781,-0.884701 0.137032,-0.298675 0.269684,-0.601529 0.397391,-0.908472 0.127709,-0.306941 0.250589,-0.618265 0.36897,-0.93431 0.118381,-0.316043 0.232016,-0.636753 0.341065,-0.962731 0.109049,-0.32598 0.213447,-0.65699 0.313159,-0.993738 0.09971,-0.336749 0.194883,-0.678976 0.285254,-1.027328 0.09037,-0.348351 0.175806,-0.702711 0.256832,-1.063501 0.08103,-0.360788 0.157767,-0.728198 0.229443,-1.102258 0.07167,-0.37406 0.1387,-0.754918 0.201021,-1.143083 0.06232,-0.388163 0.119638,-0.783905 0.1726,-1.187007 0.05296,-0.403104 0.101095,-0.813609 0.144694,-1.232483 0.0436,-0.418876 0.08256,-0.846094 0.116788,-1.281576 0.01939,-0.246719 0.02599,-0.51772 0.04237,-0.769979 -0.146768,0.0216 -0.288994,0.03462 -0.420646,0.03462 z"
           transform="translate(-2.45e-5,3.116022)" /><path
           d="m 39.664762,14.504024 c -0.03267,0.0037 -0.06586,0.0029 -0.09819,0.0088 -0.0872,0.0159 -0.172585,0.0396 -0.254765,0.0708 -0.0821,0.0313 -0.160721,0.0699 -0.234611,0.115238 -0.0739,0.0452 -0.142792,0.097 -0.205672,0.154513 -0.0629,0.0577 -0.119532,0.120819 -0.168982,0.188619 -0.0495,0.0679 -0.0915,0.140061 -0.125574,0.215491 -0.034,0.0754 -0.0597,0.153587 -0.077,0.233577 -0.0174,0.08 -0.02625,0.161319 -0.02635,0.242879 6e-5,8.51e-4 -6.8e-5,0.0012 0,0.0021 0.0017,0.02177 -0.01155,0.0329 -0.03204,0.02532 -0.02882,-0.01065 -0.05744,-0.02063 -0.0863,-0.02946 -0.0812,-0.0213 -0.161903,-0.03462 -0.240813,-0.04082 -0.0788,-0.006 -0.155456,-0.0054 -0.228926,0.0036 -0.0735,0.009 -0.143443,0.02561 -0.208773,0.04961 -0.0653,0.0238 -0.125701,0.0548 -0.180351,0.0925 -0.0547,0.0379 -0.103321,0.0824 -0.145211,0.132809 -0.0421,0.0503 -0.0772,0.106432 -0.104903,0.167432 -0.0275,0.061 -0.04743,0.126593 -0.05943,0.195853 -0.0121,0.0692 -0.0162,0.141725 -0.0124,0.216524 0.004,0.0749 0.01564,0.151784 0.03514,0.229444 0.0196,0.0776 0.04601,0.155701 0.08062,0.233061 0.0346,0.0772 0.0763,0.153376 0.124541,0.227376 0.0482,0.0742 0.10273,0.14583 0.16278,0.21394 0.06,0.0681 0.12527,0.13231 0.19482,0.19172 0.0696,0.0593 0.143185,0.113447 0.219625,0.161747 0.0764,0.0483 0.155345,0.0906 0.235645,0.126091 0.0138,0.005 0.02764,0.01 0.04134,0.01447 v 0.962215 c 0.21762,-0.0199 0.435764,-0.03758 0.655774,-0.04858 0.245132,-0.01217 0.492124,-0.01781 0.740006,-0.0186 z"
           style="fill:#00b200;fill-opacity:1;stroke:none;stroke-width:0.055;stroke-linecap:round;stroke-linejoin:round"
           id="path65" /><path
           style="color:#000000;display:inline;fill:#0000ff;stroke:#ffffff;stroke-width:1.01027;stroke-linecap:round;stroke-linejoin:round;stroke-dasharray:none;paint-order:stroke fill markers"
           d="m 39.703495,18.841677 c -0.260809,2.19e-4 -0.520449,0.0068 -0.778247,0.01964 -0.257799,0.01281 -0.513934,0.03174 -0.768429,0.05684 -0.254494,0.02511 -0.507197,0.05641 -0.758093,0.09353 -0.250896,0.03712 -0.499721,0.07983 -0.746725,0.128674 -0.247003,0.04884 -0.492022,0.103539 -0.734839,0.163814 -0.242816,0.06028 -0.483584,0.125984 -0.721919,0.197404 -0.238335,0.07142 -0.474408,0.148717 -0.707967,0.230994 -0.233559,0.08228 -0.464492,0.169672 -0.692981,0.262516 -0.22849,0.09284 -0.454353,0.190916 -0.677478,0.294039 -0.223126,0.103122 -0.443475,0.211416 -0.660942,0.324528 -0.217467,0.113112 -0.432374,0.23117 -0.643888,0.353984 -0.211514,0.122813 -0.419501,0.25018 -0.624768,0.382405 -0.205268,0.132225 -0.407437,0.269479 -0.606165,0.410828 -0.198726,0.141348 -0.39412,0.287 -0.58601,0.437182 -0.191891,0.150183 -0.380578,0.304809 -0.56534,0.463538 -0.184762,0.158729 -0.365781,0.321357 -0.543119,0.488342 -0.177338,0.166986 -0.350762,0.338194 -0.520383,0.513147 -0.169619,0.174954 -0.33552,0.353769 -0.497127,0.536402 -0.161607,0.182632 -0.319022,0.369116 -0.472322,0.559139 -0.153301,0.190023 -0.302301,0.383718 -0.447001,0.580843 -0.144699,0.197124 -0.284843,0.397576 -0.420647,0.601513 -0.135804,0.203938 -0.267159,0.411207 -0.393774,0.621668 -0.126615,0.210461 -0.248738,0.424091 -0.36587,0.640788 -0.117131,0.216696 -0.229577,0.436748 -0.33693,0.659391 -0.107353,0.222643 -0.209677,0.448144 -0.306958,0.676444 -0.09728,0.228301 -0.189554,0.459312 -0.276469,0.692981 -0.08691,0.233669 -0.168175,0.469735 -0.244429,0.708484 -0.07625,0.238749 -0.147091,0.47993 -0.21239,0.72347 -0.0653,0.24354 -0.125267,0.489381 -0.179317,0.737423 -0.0074,0.0338 -0.01248,0.06844 -0.01964,0.102319 h -1.516703 c -0.08193,0 -0.162114,0.0081 -0.239262,0.02377 -0.07715,0.01572 -0.151401,0.03886 -0.222209,0.06873 -0.07081,0.02987 -0.138113,0.06658 -0.201021,0.109037 -0.06291,0.04246 -0.121219,0.0907 -0.174666,0.144178 -0.05345,0.05348 -0.101751,0.112245 -0.144177,0.175183 -0.04243,0.06294 -0.07919,0.130189 -0.109038,0.201021 -0.02984,0.07083 -0.05303,0.145047 -0.06873,0.222209 -0.0157,0.07716 -0.02377,0.157335 -0.02377,0.239262 0,0.08193 0.0081,0.161597 0.02377,0.238745 0.0157,0.07715 0.03889,0.1514 0.06873,0.222208 0.02984,0.07081 0.06661,0.138113 0.109038,0.201022 0.04243,0.06291 0.09073,0.121735 0.144177,0.175183 0.05345,0.05345 0.111758,0.101751 0.174666,0.144177 0.06291,0.04243 0.130213,0.07868 0.201021,0.108521 0.07081,0.02984 0.145062,0.05303 0.222209,0.06873 0.07715,0.0157 0.157335,0.02429 0.239262,0.02429 h 1.203027 c 5.9e-5,0.0094 -0.0012,0.01969 -0.001,0.02894 0.0013,0.06704 0.0056,0.130952 0.01344,0.191203 0.0078,0.06025 0.01882,0.116967 0.03307,0.169498 0.01425,0.05253 0.03205,0.100812 0.05271,0.144694 0.02066,0.04388 0.04428,0.08352 0.07131,0.117823 0.02703,0.03431 0.05706,0.06353 0.09043,0.08733 0.03337,0.0238 0.0704,0.0419 0.110072,0.05426 0.03967,0.01236 0.08222,0.01912 0.128157,0.01912 h 30.609501 c 0.05171,0 0.09963,-0.0038 0.144177,-0.01137 0.04455,-0.0075 0.08561,-0.01879 0.122989,-0.03462 0.03739,-0.01583 0.07107,-0.03605 0.101286,-0.06098 0.03022,-0.02493 0.05705,-0.05458 0.0801,-0.0894 0.02305,-0.03482 0.04252,-0.07491 0.05839,-0.120406 0.01587,-0.0455 0.02799,-0.09651 0.03669,-0.153479 0.0087,-0.05697 0.01398,-0.11991 0.0155,-0.189136 10e-4,-0.04683 -0.0019,-0.100733 -0.0041,-0.153479 h 1.155485 c 0.08193,0 0.1621,-0.0086 0.239261,-0.02429 0.07716,-0.0157 0.151376,-0.03888 0.222209,-0.06873 0.07083,-0.02984 0.138083,-0.06609 0.201021,-0.108521 0.06294,-0.04243 0.121703,-0.09073 0.175183,-0.144177 0.05348,-0.05345 0.101721,-0.112275 0.144177,-0.175183 0.04246,-0.06291 0.07917,-0.130213 0.109038,-0.201022 0.02987,-0.07081 0.05301,-0.14506 0.06873,-0.222208 0.01572,-0.07715 0.02377,-0.156818 0.02377,-0.238745 0,-0.08193 -0.0081,-0.1621 -0.02377,-0.239262 -0.01572,-0.07716 -0.03886,-0.151376 -0.06873,-0.222209 -0.02987,-0.07083 -0.06658,-0.138083 -0.109038,-0.201021 -0.04246,-0.06294 -0.0907,-0.121704 -0.144177,-0.175183 -0.05348,-0.05348 -0.112245,-0.101721 -0.175183,-0.144178 -0.06294,-0.04246 -0.130189,-0.07917 -0.201021,-0.109037 -0.07083,-0.02987 -0.145047,-0.05301 -0.222209,-0.06873 -0.07716,-0.01572 -0.157335,-0.02377 -0.239261,-0.02377 h -1.480014 c -6.55e-4,-0.0031 -8.93e-4,-0.0062 -0.0016,-0.0093 -0.05359,-0.249706 -0.112896,-0.497389 -0.177767,-0.742591 C 54.973608,30.506852 54.90298,30.263822 54.827121,30.023417 54.751261,29.783011 54.67028,29.54508 54.583725,29.309765 54.497175,29.07445 54.405248,28.842066 54.30829,28.612133 54.21133,28.382201 54.108918,28.154777 54.001849,27.930521 53.894779,27.706265 53.78284,27.484766 53.665952,27.266479 53.549064,27.048192 53.427531,26.833064 53.301116,26.62104 53.174701,26.409016 53.043508,26.20019 52.907859,25.994722 52.772209,25.789254 52.631804,25.587177 52.487213,25.388557 52.342621,25.189938 52.19397,24.995057 52.040728,24.80358 51.887485,24.61211 51.730002,24.423839 51.568404,24.239797 51.406805,24.055755 51.24094,23.875575 51.071276,23.699262 50.901612,23.522948 50.727815,23.350789 50.550378,23.182497 50.372941,23.014206 50.191659,22.849998 50.006743,22.690021 49.821824,22.530044 49.633507,22.374235 49.441402,22.222866 49.249296,22.071497 49.053359,21.924533 48.854357,21.782066 48.655355,21.639599 48.453282,21.501411 48.247676,21.368138 48.04207,21.234865 47.833275,21.106417 47.621358,20.982632 47.409441,20.858846 47.194372,20.740069 46.976436,20.626064 46.7585,20.51206 46.537607,20.402883 46.313944,20.298953 46.090281,20.195022 45.864013,20.09641 45.634916,20.002847 c -0.229098,-0.09356 -0.460808,-0.182198 -0.695048,-0.265101 -0.23424,-0.0829 -0.471461,-0.160077 -0.710551,-0.232027 -0.23909,-0.07195 -0.480339,-0.138768 -0.723987,-0.199471 -0.243648,-0.0607 -0.48951,-0.115685 -0.737423,-0.164848 -0.247913,-0.04916 -0.497939,-0.09238 -0.749825,-0.129707 -0.251886,-0.03733 -0.505627,-0.06885 -0.761194,-0.09405 -0.255567,-0.0252 -0.51309,-0.04406 -0.772046,-0.05684 -0.258955,-0.01278 -0.519295,-0.01905 -0.781347,-0.01912 z m -4.393014,4.814693 h 1.479496 c 0.03601,0 0.07099,0.0034 0.104904,0.01034 0.03391,0.0069 0.06655,0.01735 0.09767,0.03049 0.06224,0.02628 0.118389,0.06406 0.165365,0.111104 0.04698,0.04704 0.08488,0.103074 0.111104,0.165365 0.01311,0.03115 0.02359,0.06375 0.03049,0.09767 0.0069,0.03392 0.01033,0.06941 0.01033,0.10542 v 4.305164 c 0,0.03601 -0.0034,0.07099 -0.01033,0.104903 -0.0069,0.03391 -0.01738,0.06655 -0.03049,0.09767 -0.02623,0.06224 -0.06413,0.118387 -0.111104,0.165365 -0.04698,0.04698 -0.103124,0.08487 -0.165365,0.111104 -0.03112,0.01312 -0.06376,0.02307 -0.09767,0.02997 -0.03391,0.0069 -0.06889,0.01085 -0.104904,0.01085 h -1.479496 c -0.03601,0 -0.07099,-0.004 -0.104903,-0.01085 -0.03391,-0.0069 -0.06655,-0.01686 -0.09767,-0.02997 -0.06224,-0.02623 -0.118388,-0.06413 -0.165365,-0.111104 -0.04698,-0.04698 -0.08488,-0.103123 -0.111104,-0.165365 -0.01311,-0.03112 -0.02359,-0.06376 -0.03049,-0.09767 -0.0069,-0.03391 -0.01034,-0.06889 -0.01034,-0.104903 v -4.305171 c 0,-0.03601 0.0034,-0.0715 0.01034,-0.10542 0.0069,-0.03392 0.01737,-0.06652 0.03049,-0.09767 0.02623,-0.06229 0.06413,-0.118324 0.111104,-0.165365 0.04698,-0.04704 0.103124,-0.08483 0.165365,-0.111104 0.03112,-0.01314 0.06376,-0.02358 0.09767,-0.03049 0.03391,-0.0069 0.06889,-0.01034 0.104903,-0.01034 z m 7.393347,0 h 1.479497 c 0.03601,0 0.07099,0.0034 0.104903,0.01034 0.03391,0.0069 0.06655,0.01735 0.09767,0.03049 0.06224,0.02628 0.118387,0.06406 0.165365,0.111104 0.04698,0.04704 0.08487,0.103074 0.111104,0.165365 0.01311,0.03115 0.02359,0.06375 0.03049,0.09767 0.0069,0.03392 0.01034,0.06941 0.01034,0.10542 v 4.305164 c 0,0.03601 -0.0034,0.07099 -0.01034,0.104903 -0.0069,0.03391 -0.01737,0.06655 -0.03049,0.09767 -0.02623,0.06224 -0.06413,0.118387 -0.111104,0.165365 -0.04698,0.04698 -0.103123,0.08487 -0.165365,0.111104 -0.03112,0.01312 -0.06376,0.02307 -0.09767,0.02997 -0.03391,0.0069 -0.06889,0.01085 -0.104903,0.01085 h -1.479497 c -0.03601,0 -0.07099,-0.004 -0.104903,-0.01085 -0.03391,-0.0069 -0.06655,-0.01686 -0.09767,-0.02997 -0.06224,-0.02623 -0.118387,-0.06413 -0.165365,-0.111104 -0.04698,-0.04698 -0.08487,-0.103123 -0.111104,-0.165365 -0.01312,-0.03112 -0.02359,-0.06376 -0.03049,-0.09767 -0.0069,-0.03391 -0.01034,-0.06889 -0.01034,-0.104903 v -4.305171 c 0,-0.03601 0.0034,-0.0715 0.01034,-0.10542 0.0069,-0.03392 0.01737,-0.06652 0.03049,-0.09767 0.02623,-0.06229 0.06413,-0.118324 0.111104,-0.165365 0.04698,-0.04704 0.103123,-0.08483 0.165365,-0.111104 0.03112,-0.01314 0.06376,-0.02358 0.09767,-0.03049 0.03391,-0.0069 0.06889,-0.01034 0.104903,-0.01034 z"
           id="path55" /><path
           d="m 39.664762,18.842778 c -0.247707,8.09e-4 -0.494531,0.0064 -0.739489,0.0186 -0.257799,0.01281 -0.513934,0.03174 -0.768429,0.05684 -0.254494,0.02511 -0.507197,0.05641 -0.758093,0.09353 -0.250896,0.03712 -0.499721,0.07983 -0.746725,0.128675 -0.247002,0.04884 -0.492022,0.103539 -0.734839,0.163814 -0.242815,0.06028 -0.483584,0.125984 -0.721919,0.197404 -0.238335,0.07142 -0.474409,0.148717 -0.707967,0.230994 -0.233559,0.08228 -0.464493,0.169672 -0.692981,0.262516 -0.22849,0.09284 -0.454354,0.190916 -0.677478,0.294039 -0.223126,0.103122 -0.443475,0.211416 -0.660942,0.324528 -0.217467,0.113112 -0.432374,0.23117 -0.643888,0.353983 -0.211514,0.122813 -0.419502,0.250181 -0.624768,0.382406 -0.205268,0.132225 -0.407437,0.269479 -0.606165,0.410828 -0.198726,0.141347 -0.394121,0.287 -0.586011,0.437182 -0.19189,0.150183 -0.380578,0.304809 -0.56534,0.463538 -0.184762,0.158729 -0.365781,0.321357 -0.543119,0.488342 -0.177338,0.166986 -0.350761,0.338194 -0.520382,0.513147 -0.169619,0.174954 -0.33552,0.353769 -0.497127,0.536401 -0.161607,0.182632 -0.319023,0.369117 -0.472323,0.559139 -0.153301,0.190023 -0.302301,0.383719 -0.447001,0.580844 -0.144699,0.197123 -0.284842,0.397576 -0.420646,0.601513 -0.135804,0.203938 -0.267159,0.411207 -0.393774,0.621668 -0.126615,0.210461 -0.248738,0.424091 -0.36587,0.640787 -0.11713,0.216696 -0.229577,0.436749 -0.33693,0.659392 -0.107353,0.222643 -0.209677,0.448144 -0.306958,0.676444 -0.09728,0.228301 -0.189554,0.459312 -0.276469,0.692981 -0.08691,0.233669 -0.168175,0.469735 -0.244429,0.708484 -0.07625,0.238749 -0.147091,0.47993 -0.21239,0.72347 -0.0653,0.24354 -0.125268,0.489381 -0.179318,0.737423 -0.0074,0.0338 -0.01248,0.06844 -0.01964,0.102319 h -1.516703 c -0.08193,0 -0.162114,0.0081 -0.239262,0.02377 -0.07715,0.01572 -0.151401,0.03886 -0.222209,0.06873 -0.07081,0.02987 -0.138113,0.06658 -0.201021,0.109037 -0.06291,0.04246 -0.121219,0.0907 -0.174666,0.144178 -0.05345,0.05348 -0.101751,0.112245 -0.144177,0.175183 -0.04243,0.06294 -0.07919,0.130189 -0.109038,0.201021 -0.02984,0.07083 -0.05303,0.145047 -0.06873,0.222209 -0.0157,0.07716 -0.02377,0.157335 -0.02377,0.239261 0,0.08193 0.0081,0.161598 0.02377,0.238746 0.0157,0.07715 0.03889,0.1514 0.06873,0.222208 0.02984,0.07081 0.06661,0.138113 0.109038,0.201022 0.04243,0.06291 0.09073,0.121735 0.144177,0.175183 0.05345,0.05345 0.111758,0.101751 0.174666,0.144177 0.06291,0.04243 0.130214,0.07868 0.201021,0.10852 0.07081,0.02984 0.145062,0.05303 0.222209,0.06873 0.07715,0.0157 0.157335,0.02429 0.239262,0.02429 h 1.203027 c 5.9e-5,0.0094 -0.0012,0.01969 -0.001,0.02894 0.0013,0.06704 0.0056,0.130952 0.01344,0.191203 0.0078,0.06025 0.01882,0.116967 0.03307,0.169498 0.01425,0.05253 0.03205,0.100812 0.05271,0.144694 0.02066,0.04388 0.04428,0.08352 0.07131,0.117823 0.02703,0.03431 0.05706,0.06353 0.09043,0.08733 0.03337,0.0238 0.0704,0.0419 0.110071,0.05426 0.03967,0.01236 0.08222,0.01912 0.128157,0.01912 h 15.286922 z m -4.354256,4.813659 h 1.479496 c 0.03601,0 0.07099,0.0034 0.104904,0.01034 0.03391,0.0069 0.06655,0.01735 0.09767,0.03049 0.06224,0.02628 0.118389,0.06406 0.165365,0.111104 0.04698,0.04704 0.08488,0.103074 0.111104,0.165364 0.01311,0.03115 0.02359,0.06375 0.03049,0.09767 0.0069,0.03392 0.01033,0.06941 0.01033,0.10542 v 4.305163 c 0,0.03601 -0.0034,0.07099 -0.01033,0.104904 -0.0069,0.03391 -0.01738,0.06655 -0.03049,0.09767 -0.02623,0.06224 -0.06413,0.118387 -0.111104,0.165365 -0.04698,0.04698 -0.103124,0.08487 -0.165365,0.111104 -0.03112,0.01312 -0.06376,0.02307 -0.09767,0.02997 -0.03391,0.0069 -0.06889,0.01085 -0.104904,0.01085 h -1.479496 c -0.03601,0 -0.07099,-0.004 -0.104903,-0.01085 -0.03391,-0.0069 -0.06655,-0.01686 -0.09767,-0.02997 -0.06224,-0.02623 -0.118388,-0.06413 -0.165365,-0.111104 -0.04698,-0.04698 -0.08488,-0.103123 -0.111104,-0.165365 -0.01311,-0.03112 -0.02359,-0.06376 -0.03049,-0.09767 -0.0069,-0.03391 -0.01034,-0.06889 -0.01034,-0.104904 v -4.305163 c 0,-0.03601 0.0034,-0.0715 0.01034,-0.10542 0.0069,-0.03392 0.01737,-0.06652 0.03049,-0.09767 0.02623,-0.06229 0.06413,-0.118323 0.111104,-0.165364 0.04698,-0.04704 0.103124,-0.08483 0.165365,-0.111104 0.03112,-0.01314 0.06376,-0.02358 0.09767,-0.03049 0.03391,-0.0069 0.06889,-0.01034 0.104903,-0.01034 z"
           style="display:inline;fill:#3333ff;fill-opacity:1;stroke:none;paint-order:stroke markers fill"
           id="path61" /><path
           d="m 39.664762,48.443555 c -0.384879,-0.0013 -0.769298,-0.01668 -1.152384,-0.05013 -0.398891,-0.03483 -0.796429,-0.08705 -1.191142,-0.15658 C 36.926558,48.167172 36.535433,48.08011 36.148698,47.9764 35.761963,47.87269 35.379615,47.752332 35.003031,47.615181 34.626371,47.478184 34.255963,47.324921 33.893022,47.155778 33.53008,46.986635 33.174602,46.801612 32.827454,46.60129 32.480407,46.400807 32.142536,46.185083 31.814596,45.955334 31.486655,45.725586 31.168643,45.481813 30.861682,45.224113 30.554594,44.966517 30.259146,44.695905 29.975948,44.412793 29.69275,44.129681 29.4218,43.834069 29.164111,43.527059 28.906488,43.220005 28.662552,42.902172 28.43289,42.574146 28.203228,42.246119 27.987839,41.907896 27.787451,41.560771 27.587054,41.213714 27.402192,40.858058 27.232963,40.495203 27.063734,40.132347 26.910137,39.76229 26.773043,39.38571 26.635966,39.009034 26.515448,38.626865 26.411825,38.240043 26.308201,37.853221 26.22147,37.461746 26.151892,37.066988 c -0.0015,-0.01502 -0.0032,-0.02993 -0.0047,-0.04496 -0.0046,-0.04681 -0.01793,-0.0917 -0.03876,-0.132292 -0.02083,-0.0406 -0.04886,-0.07728 -0.08217,-0.108004 -0.03331,-0.03072 -0.07216,-0.05516 -0.114205,-0.07235 -0.04205,-0.01719 -0.08732,-0.02687 -0.134358,-0.02687 h -1.400948 c -0.121074,0 -0.244188,-0.0095 -0.36587,-0.02791 -0.012,-0.0018 -0.02354,-0.0047 -0.03514,-0.0078 -0.01755,-0.0046 -0.03146,0.0071 -0.03049,0.02532 0.01047,0.19735 0.01895,0.397141 0.03256,0.591179 0.02902,0.414081 0.06375,0.821609 0.104903,1.223181 0.04115,0.40157 0.08856,0.796865 0.141593,1.186491 0.05303,0.389623 0.112077,0.773625 0.176734,1.151867 0.06466,0.378245 0.134815,0.750853 0.210839,1.118278 0.07602,0.367428 0.157809,0.729579 0.244947,1.086756 0.08714,0.357174 0.179507,0.709292 0.277502,1.056783 0.098,0.347488 0.201461,0.690508 0.310059,1.028877 0.108598,0.338368 0.222635,0.672193 0.341581,1.002006 0.118945,0.329812 0.243033,0.65538 0.37207,0.977202 0.129038,0.321821 0.263169,0.640068 0.402043,0.954464 0.138874,0.314394 0.282526,0.625225 0.430981,0.932759 0.148456,0.307535 0.301622,0.611884 0.459404,0.913123 0.157782,0.301238 0.319939,0.599011 0.486792,0.894519 0.166853,0.295507 0.337995,0.588674 0.513664,0.879016 0.175667,0.290342 0.35573,0.578257 0.540018,0.86403 0.184289,0.285772 0.372808,0.569405 0.56534,0.851111 0.385069,0.563409 0.78627,1.119009 1.203028,1.669665 0.416756,0.550659 0.849123,1.096234 1.295528,1.63866 0.446405,0.542424 0.9073,1.081859 1.381311,1.620573 0.474011,0.538712 0.961319,1.0764 1.460893,1.615922 0.499571,0.53952 1.01118,1.080892 1.534273,1.62574 1.035945,1.079031 2.117133,2.173711 3.233394,3.300057 z"
           style="fill:#db0000;fill-opacity:1;fill-rule:nonzero;stroke:none;stroke-width:0.0451354;stroke-linecap:round;stroke-linejoin:round;paint-order:stroke markers fill"
           id="path63" /><path
           d="m 36.711368,44.709931 1.908963,-2.314812 0.873218,1.113791 -1.683081,2.140351 c -0.644585,0.819045 -1.837342,-0.04407 -1.0991,-0.93933 z m 2.229418,-5.271455 c 0.181806,-0.593164 0.09826,-1.100017 -0.5849,-1.852951 l -1.66931,-2.008129 c -0.236898,-0.278219 -0.795171,0.130383 -0.561946,0.467369 l 1.335081,1.644518 c 0.252508,0.306683 -0.216698,0.712532 -0.477471,0.396667 l -1.38099,-1.700528 c -0.257099,-0.294746 -0.788744,0.09458 -0.519708,0.431559 0.389322,0.468289 0.991669,1.233159 1.380991,1.701447 0.269954,0.274545 -0.140487,0.681313 -0.406769,0.33882 l -1.37089,-1.689509 c -0.201088,-0.218535 -0.529809,-0.08263 -0.617037,0.172624 -0.09365,0.272708 0.136816,0.47196 0.293827,0.673967 l 1.529741,1.975992 c 0.474715,0.550009 1.005441,0.875974 1.62248,0.691414 0.09458,-0.02846 0.21027,-0.08631 0.33423,-0.162525 l 4.109915,5.305428 c 0.221289,0.285565 0.648257,0.315866 0.925558,0.08539 l 0.06336,-0.05234 c 0.312192,-0.259855 0.362693,-0.73457 0.0955,-1.041253 l -4.352324,-5.000581 c 0.126718,-0.141405 0.219452,-0.275464 0.250672,-0.377386 z m 1.163374,1.156947 0.676722,-0.820881 c -0.870465,-2.157798 2.355214,-5.033638 3.918929,-3.711412 1.899781,1.607788 -0.923722,5.482642 -2.907977,4.524947 l -0.801599,1.018298 z"
           id="path1"
           style="fill:#b3b3b3;stroke:#ffffff;stroke-width:1.01027;stroke-linecap:round;stroke-linejoin:round;stroke-dasharray:none;paint-order:stroke fill markers" /></g></g></g></svg>
